Patient4_TMGait_0pt8_01_left_45_EMG.mot
version=1
nRows=40
nColumns=33
inDegrees=no
endheader
time	1LAddLong	2LGlutMax	3LGlutMed	4LIliopsoas	5LSemiMemb	6LBicFemLong	7LRecFem	8LVastMed	9LVastLat	10LGasMed	11LTibAnt	12lTibPost	13LPeroneusLong	14LSol	15LExtDigLong	16LFlexDigLong	17RAddLong	18RGlutMax	19RGlutMed	20RIliopsoas	21RSemiMemb	22RBicFemLong	23RRecFem	24RVastMed	25RVastLat	26RGasMed	27RTibAnt	28RTibPost	29RPeroneusLong	30RSol	31RExtDigLong	32RFlexDigLong
50.02	0.004272	0.62332	-0.072937	0.016937	-0.008545	0.021057	0.092926	0.033722	0.012817	0.027771	-0.080109	-0.004425	0.05722	0.004883	0.91522	0.001984	0.025177	0.87601	1.0495	-0.087891	-0.021667	-0.10284	0.090485	-0.41031	0.62347	-0.0914	0.023499	0.007782	0.51498	0.24277	-0.000763	0.001373
50.021	-0.006409	0.72052	-0.050507	0.013123	-0.019226	0.030975	0.14832	0.02243	0.075836	0.027313	-0.09201	0.003815	0.031433	0.033264	-0.053864	-0.009155	0.010071	0.91065	0.50262	0.039673	-0.028076	-0.17914	0.11551	-0.42328	0.59418	-0.069885	0.024719	0.013885	-0.20462	0.13046	-0.00061	-0.004272
50.022	-0.006409	0.80627	-0.049286	0.021667	-0.010223	0.030212	0.2858	0.01236	0.13367	0.0354	-0.056763	0.003662	-0.04837	-0.014343	0.10956	-0.003662	-0.006409	0.96283	-0.23911	0.14328	-0.023651	-0.29694	-0.003052	-0.28473	0.47394	-0.081024	0.044708	0.02243	-0.88196	0.18097	-0.004578	-0.010071
50.023	-0.006104	0.89584	-0.062866	-0.020142	-0.006256	0.035248	0.4689	0.019531	0.18723	0.007019	-0.008545	0.00473	-0.020294	0.002747	-0.37231	-0.011749	-0.00824	0.98618	0.11536	0.19531	-0.030212	-0.25559	-0.10346	-0.25253	0.29358	-0.046692	-0.010071	0.014954	-0.074615	0.1178	-0.004272	-0.005493
50.024	-0.006714	1.0127	-0.064545	-0.008087	-0.014496	0.03952	0.48492	0.021515	0.20996	0.025177	0.10773	0.002594	0.006256	-0.012512	0.17441	-0.02121	-0.006409	0.9407	0.13962	0.1004	-0.033722	-0.22751	-0.20111	-0.058594	0.1503	-0.019684	-0.032654	0.021057	0.21912	0.098114	-0.001678	-0.010223
50.025	-0.002136	1.1507	-0.079498	-0.006866	-0.011597	0.050354	0.50476	0.011597	0.22308	0.018311	0.021362	0.001526	0.019531	-0.000916	0.019836	0.004272	-0.013733	0.94559	0.026093	0.028229	-0.042267	-0.19241	-0.48981	0.15182	-0.077209	-0.016632	0.032501	0.014343	0.159	0.014343	-0.001984	-0.012665
50.026	0.002441	1.2549	-0.09491	0.003815	-0.001831	0.037689	0.56107	0.010071	0.23804	0.029602	0.045624	0.007324	0.1207	0.008545	-0.32745	-0.011444	0.015106	1.0445	-0.14572	0.024414	-0.047913	-0.20233	-0.39749	0.32425	-0.51209	-0.00824	-0.026703	0.015106	1.0429	-0.15427	0.003204	-0.011139
50.027	-0.004578	1.4073	-0.085449	0.002747	-0.005341	0.018768	0.59006	0.010071	0.2475	0.014191	0.11231	0.001373	0.14481	-0.065918	-0.10864	-0.01236	0.050049	1.0158	-0.40863	0.046844	-0.053253	-0.16357	-0.21439	0.1506	-0.81421	-0.003052	-0.068665	0.012817	0.86548	-0.19104	0.00061	-0.005035
50.028	0.002441	1.4629	-0.076904	0.002441	-0.00412	-0.012512	0.59937	0.00946	0.24384	-0.002747	-0.007935	0.005798	0.12726	-0.075378	0.25116	-0.007172	0.036621	1.0968	-0.39871	0.043488	-0.037537	0.041046	-0.088806	0.1442	-0.48706	0.005035	-0.028381	0.013428	0.11017	-0.008545	-0.000916	-0.000458
50.029	-0.000153	1.5298	-0.046539	-0.010376	-0.010223	-0.018158	0.54977	0.006561	0.25482	0.020142	-0.1413	0.006561	0.099335	-0.077667	0.028381	-0.025787	0.022888	1.0922	0.41946	0.035858	-0.11292	0.47669	-0.077515	0.13199	-0.18692	0.012207	0.095215	0.003357	-0.63828	0.056	0.00061	-0.00061
50.03	0.002899	1.5202	-0.052338	0.011444	-0.01709	-0.04303	0.53116	-0.007782	0.2533	0.027313	-0.012817	0.008392	0.050049	-0.15549	0.31418	-0.021973	0.019379	1.0422	0.46799	0.02594	-0.16525	0.40237	-0.047913	0.057678	-0.073853	-0.001678	0.13062	0.009308	-1.4229	-0.27725	-0.003204	-0.000153
50.031	0.005493	1.5077	-0.041504	0.012817	-0.007324	-0.052948	0.45425	-0.00351	0.25421	0.015259	0.097961	0.007019	0.014954	-0.1091	-0.13962	-0.013123	0.044403	0.97153	0.43182	-0.00885	-0.17777	0.2449	-0.11536	0.11017	-0.000763	-0.027771	0.29709	0.009766	-0.76706	-0.25177	-0.00351	-0.004272
50.032	0.001526	1.4941	-0.006866	0.021515	0.006561	-0.057373	0.36728	-0.012665	0.25986	-0.002289	0.03418	0.010071	0.029449	-0.054321	-0.000458	-0.001526	0.050812	0.81619	0.62683	0.037689	-0.17014	0.17273	-0.11078	-0.005035	0.000916	-0.072021	0.21194	0.002899	1.1337	0.016479	-0.001526	-0.005035
50.033	-0.000153	1.4603	-0.016022	0.035858	-0.007477	-0.073395	0.30975	-0.009308	0.25818	-0.026855	-0.03479	0.020294	0.043945	-0.036469	0.11902	-0.01297	0.026398	0.69626	0.46127	0.061035	0.015106	-0.044098	-0.15884	-0.083923	0.035248	-0.1001	0.044556	0.003662	1.8698	0.11459	-0.000916	-0.002136
50.034	0.004883	1.4388	-0.012512	0.006104	-0.000763	-0.06546	0.28992	-0.006714	0.25238	-0.003204	-0.079346	0.009613	0.043488	-0.020142	0.17014	-0.006256	-0.011444	0.61005	0.45792	0.049133	0.13092	-0.029297	-0.11963	-0.034027	0.075836	-0.1088	-0.060425	0.001678	-1.0001	0.11581	-0.003815	0.005951
50.035	0.000458	1.4253	0.018921	-0.022583	-0.002289	-0.046997	0.23331	-0.001831	0.24811	-0.048828	-0.012665	0.01236	0.049744	-0.000916	-0.54779	-0.00412	-0.003204	0.54001	0.000458	0.029602	-0.35156	0.12085	-0.066833	0.024261	0.091705	0.009918	-0.16769	0.000458	-1.6002	-0.029144	-0.002747	0.00473
50.036	0.002594	1.3814	-0.015259	-0.002136	-0.013428	-0.036774	0.15259	0.008087	0.23605	-0.09201	-0.036926	0.011902	0.038147	-0.023956	-0.32471	-0.014496	-0.042267	0.53146	-0.11917	0.041504	-0.24826	0.018005	-0.10422	0.018768	0.068207	0.036316	-0.10178	-0.013428	-0.85953	-0.047302	-0.001068	0.004272
50.037	-0.000458	1.2567	-0.057068	0.005951	-0.004578	-0.03479	0.12299	0.00824	0.23605	-0.018311	-0.061798	0.014801	-0.027771	-0.031128	-0.21713	-0.013885	-0.030518	0.45883	-0.15213	-0.091248	0.0177	-0.10666	0.004883	-0.14786	0.048523	0.080872	-0.17395	-0.00412	1.0834	-0.12009	-0.003357	0.00824
50.038	0.004578	1.2393	-0.066071	0.005035	-0.00061	-0.018005	0.071564	0.017548	0.2298	0.039063	-0.022278	0.014801	-0.047913	-0.063171	-0.14145	-0.015106	-0.032806	0.44937	-0.26154	-0.16296	0.050354	-0.12314	0.066986	-0.13275	0.038147	0.084839	-0.21378	0.023193	1.2534	-0.010986	-0.002136	-0.00824
50.039	0.002136	1.1824	-0.003357	-0.007019	-0.012817	-0.00473	0.044708	0.015564	0.23056	0.043945	0.041199	0.011749	-0.033722	-0.031738	-0.081787	-0.01709	-0.026398	0.40436	-0.36011	-0.13107	0.098419	-0.168	0.13214	-0.071411	0.040588	0.053406	-0.03067	-0.007019	0.35217	0.049286	0.010986	-0.011139
50.04	0.005341	1.1308	-0.037994	0.003967	-0.008545	-0.014038	0.015106	0.009155	0.20584	0.043793	0.061798	0.017853	-0.046692	0.012054	-0.014954	-0.005035	0.00061	0.36316	0.084991	0.010986	0.054016	-0.14481	0.14587	-0.112	0.020294	-0.013733	0.022888	-0.021667	-0.94437	0.046539	-0.00061	-0.013428
50.041	0.002899	1.1302	-0.035553	0.001221	-0.004272	0.017242	-0.01358	0.015717	0.21149	0.025024	0.027466	0.01709	-0.055695	0.11032	-0.036163	-0.005188	-0.005493	0.35355	0.11597	0.13611	0.000153	-0.089722	0.21835	-0.15274	-0.06424	-0.083923	-0.045319	-0.035706	-0.47577	-0.22568	-0.001373	-0.008087
50.042	-0.001831	1.0966	-0.02655	-0.001068	0.000458	0.007935	-0.027008	0.014954	0.2124	0.008698	0.036316	0.017853	0.00473	0.11261	0.066376	0.009155	0.011139	0.30472	0.1358	0.11169	-0.022125	-0.16205	0.099792	-0.20737	-0.1149	-0.16861	-0.090485	-0.086517	0.27664	0.13123	-0.00412	-0.006256
50.043	0.000763	1.0669	-0.019684	0.003967	0.00824	0.02243	-0.078888	0.014343	0.22308	0.006866	-0.032349	0.015869	0.023499	0.060577	-0.058594	0.013123	0.011902	0.39139	0.031281	0.0383	0.043335	-0.12909	-0.13062	-0.26993	-0.014038	-0.088806	-0.069733	-0.21561	0.20569	0.35721	-0.002747	-0.00473
50.044	0.002594	1.0049	-0.019226	0.004883	-0.001984	0.003967	-0.075531	0.015411	0.21408	0.024567	-0.03952	0.018005	0.011292	0.033722	0.10147	0.015411	0.007629	0.30579	-0.04303	-0.032349	0.090027	-0.12817	-0.21759	-0.23254	0.005341	-0.079041	-0.061951	0.27329	0.040894	0.35584	0.000153	-0.009155
50.045	-0.002289	0.91965	-0.047607	0.016479	-0.034485	-0.024414	-0.073395	0.014648	0.20233	0.00946	-0.045471	0.016327	0.087433	-0.056152	0.14221	0.010529	0.000458	0.215	0.028229	-0.026703	0.019226	-0.087891	-0.15854	-0.19058	0.034485	-0.078125	-0.006409	0.12741	-0.40527	0.38727	-0.001221	-0.013733
50.046	0.004578	0.9201	-0.052795	0.024414	-0.007935	-0.04776	-0.080872	0.004578	0.19455	-0.005646	0.00412	0.02243	0.090637	-0.13123	0.35507	0.007324	-0.006561	0.13229	-0.27802	0.040436	-0.20966	-0.023346	-0.063019	-0.016327	0.15015	0.049133	0.039063	-0.005646	-0.32761	0.57938	-0.001984	-0.00885
50.047	0.010681	0.91171	-0.059357	0.001526	0.000153	-0.042572	-0.1181	0.010071	0.18127	-0.022888	0.082855	0.024109	0.086517	-0.35187	-0.015259	0.009918	-0.00946	0.082092	-0.088654	0.11368	-0.16449	-0.038147	-0.079041	0.15137	0.15472	0.07843	0.055542	-0.054016	0.20172	0.62057	-0.000916	-0.005798
50.048	0.003967	0.90225	-0.079346	0.003357	-0.007324	-0.032806	-0.11734	0.007172	0.17975	-0.000916	0.1001	0.030518	0.041351	-0.31769	-0.018311	0.020752	0.005341	0.10468	-0.23666	0.055084	-0.093384	0.026398	-0.14084	0.049744	0.047302	0.038452	0.08728	-0.028687	0.011749	0.39459	-0.006866	0.000305
50.049	0.006561	0.83054	-0.015411	0.008698	-0.007019	-0.043488	-0.13245	0.008392	0.18097	-0.022125	0.079956	0.022125	0.007477	-0.067749	-0.048218	0.012512	0.023956	0.03006	-0.041351	-0.06134	0.095215	-0.005341	-0.037384	-0.09079	-0.023956	0.037994	0.053864	0.005341	-0.38193	-0.16892	-0.009308	0.002747
50.05	-0.000916	0.77469	0.021057	-0.001221	0.001526	-0.041046	-0.1387	0.010834	0.19028	-0.0383	-0.033875	0.026855	0.068512	-0.097656	-0.097809	0.009003	-0.011444	0.050201	1.3316	-0.15686	0.012817	-0.042114	0.14191	-0.045929	-0.061646	0.02243	0.0177	0.014954	0.26337	-0.55969	-0.00473	-0.002441
50.051	0.004883	0.70053	-0.014801	0.01709	-0.009613	-0.044708	-0.12482	0.004578	0.1831	-0.046997	-0.072021	0.025482	0.066986	-0.027924	-0.067291	0.002441	0.010376	-0.033112	1.264	-0.20981	-0.00351	-0.005493	0.12405	-0.11704	-0.16647	0.03067	0.10071	0.06485	-0.96451	-0.68283	-0.002441	0.002441
50.052	0.005188	0.64362	-0.037842	0.005341	-0.004578	-0.061646	-0.13428	0.008698	0.17563	0.00824	-0.034943	0.019531	0.063324	-0.41046	0.014038	0.008392	0.009308	-0.026398	0.19653	-0.1355	-0.22049	-0.039673	-0.000916	-0.078735	-0.14557	0.053711	0.030212	-0.088959	-0.73242	-0.75501	-0.00061	0.006256
50.053	0.004578	0.62393	-0.036163	-0.000305	-0.009918	-0.068207	-0.15472	0.009155	0.17975	0.000458	-0.013885	0.028839	0.04776	-0.37582	0.080414	0.00885	-0.017548	-0.030823	0.29495	0.037537	-0.49759	-0.035858	-0.028534	-0.024414	0.095062	0.063019	-0.15442	0.14358	1.5688	-0.85236	-0.005341	0.008087
50.054	0.011749	0.5629	-0.041351	-0.002136	-0.022736	-0.052643	-0.14374	0.006561	0.18463	-0.007935	-0.004578	0.01709	0.024414	-0.10101	0.1178	0.008545	-0.016479	-0.050354	-0.19531	0.2002	-0.24078	-0.080719	0.016937	0.066223	0.14572	0.035095	-0.026703	0.14175	1.1305	-0.55939	-0.002136	-0.002289
50.055	0.010071	0.46951	-0.049896	0.010986	-0.006104	-0.048676	-0.15686	0.012512	0.17807	-0.049896	-0.001984	0.018768	0.017242	-0.011902	0.11337	0.027313	-0.02594	-0.051575	-0.52063	0.19287	0.014496	-0.014954	-0.060577	0.086823	0.1033	0.00824	0.17166	0.046234	-0.98526	-0.015106	-0.001984	-0.00885
50.056	0.007629	0.43045	-0.04303	0.000916	-0.014954	-0.061646	-0.1265	0.005035	0.18539	-0.059052	-0.01358	0.019531	-0.005341	-0.062103	0.065308	0.023804	-0.045319	-0.11276	-0.22034	-0.033569	0.29892	0.14175	-0.25574	0.033417	0.42206	0.003815	0.12848	-0.00473	-0.20325	-0.074463	-0.001678	-0.004272
50.057	0.007324	0.37796	-0.073853	0.022125	-0.004883	-0.059509	-0.12039	0.009918	0.19073	-0.03479	-0.00061	0.009003	0.005798	-0.078583	0.003967	0.033112	-0.029144	-0.052032	0.5072	-0.16892	0.26367	0.13962	-0.30518	-0.069122	0.44281	-0.035095	0.18341	-0.053558	0.035553	-0.38345	-0.006256	-0.016022
50.058	0.011597	0.31494	-0.11169	0.003357	-0.001984	-0.072174	-0.12619	0.010223	0.18738	-0.050354	-0.011902	0.000153	0.041504	0.049133	0.022278	0.026398	-0.001678	-0.10101	0.099792	-0.026703	0.12909	0.041199	-0.11139	-0.059052	0.36499	0.00351	0.21454	-0.087585	0.22232	-0.43121	-0.002441	-0.008392
50.059	0.011902	0.29343	-0.09903	-0.006409	0.016785	-0.079346	-0.13534	0.015411	0.19516	-0.052185	0.003967	0.005035	0.031891	0.12543	0.11856	0.0354	0.015869	-0.15213	0.1886	0.1387	0.097351	-0.023346	-0.018005	-0.044098	0.27649	0.030975	0.21683	-0.089417	0.13092	-0.44861	0.000153	-0.010223
